<mxfile host="app.diagrams.net" modified="2022-12-23T17:01:24.759Z" agent="5.0 (X11; Linux x86_64) AppleWebKit/537.36 (KHTML, like Gecko) Chrome/108.0.0.0 Safari/537.36" version="20.7.4" etag="dS_b6W39gjC30qvXCzBr" type="github">
  <diagram id="-WeswJbNZbd7G-uMhAVs" name="PÃ¡gina-1">
    <mxGraphModel dx="806" dy="495" grid="1" gridSize="10" guides="1" tooltips="1" connect="1" arrows="1" fold="1" page="1" pageScale="1" pageWidth="827" pageHeight="1169" math="0" shadow="0">
      <root>
        <mxCell id="0" />
        <mxCell id="1" parent="0" />
        <mxCell id="mzEsnl5m-Egpm9HMa0oI-1" value="1" style="whiteSpace=wrap;html=1;aspect=fixed;fontSize=46;" vertex="1" parent="1">
          <mxGeometry x="200" y="80" width="80" height="80" as="geometry" />
        </mxCell>
        <mxCell id="mzEsnl5m-Egpm9HMa0oI-2" value="3" style="whiteSpace=wrap;html=1;aspect=fixed;fontSize=46;" vertex="1" parent="1">
          <mxGeometry x="200" y="200" width="80" height="80" as="geometry" />
        </mxCell>
        <mxCell id="mzEsnl5m-Egpm9HMa0oI-3" value="5" style="whiteSpace=wrap;html=1;aspect=fixed;fontSize=46;" vertex="1" parent="1">
          <mxGeometry x="200" y="320" width="80" height="80" as="geometry" />
        </mxCell>
        <mxCell id="mzEsnl5m-Egpm9HMa0oI-4" value="2" style="whiteSpace=wrap;html=1;aspect=fixed;fontSize=46;" vertex="1" parent="1">
          <mxGeometry x="320" y="80" width="80" height="80" as="geometry" />
        </mxCell>
        <mxCell id="mzEsnl5m-Egpm9HMa0oI-5" value="4" style="whiteSpace=wrap;html=1;aspect=fixed;fontSize=46;" vertex="1" parent="1">
          <mxGeometry x="80" y="320" width="80" height="80" as="geometry" />
        </mxCell>
        <mxCell id="mzEsnl5m-Egpm9HMa0oI-6" value="6" style="whiteSpace=wrap;html=1;aspect=fixed;fontSize=46;" vertex="1" parent="1">
          <mxGeometry x="80" y="440" width="80" height="80" as="geometry" />
        </mxCell>
        <mxCell id="mzEsnl5m-Egpm9HMa0oI-23" value="" style="endArrow=classic;startArrow=classic;html=1;rounded=0;fontSize=46;entryX=0.5;entryY=1;entryDx=0;entryDy=0;edgeStyle=orthogonalEdgeStyle;exitX=0.5;exitY=0;exitDx=0;exitDy=0;" edge="1" parent="1" source="mzEsnl5m-Egpm9HMa0oI-2" target="mzEsnl5m-Egpm9HMa0oI-1">
          <mxGeometry width="50" height="50" relative="1" as="geometry">
            <mxPoint x="390" y="320" as="sourcePoint" />
            <mxPoint x="440" y="270" as="targetPoint" />
          </mxGeometry>
        </mxCell>
        <mxCell id="mzEsnl5m-Egpm9HMa0oI-25" value="" style="endArrow=classic;startArrow=classic;html=1;rounded=0;fontSize=46;exitX=1;exitY=0.5;exitDx=0;exitDy=0;entryX=0;entryY=0.5;entryDx=0;entryDy=0;" edge="1" parent="1" source="mzEsnl5m-Egpm9HMa0oI-1" target="mzEsnl5m-Egpm9HMa0oI-4">
          <mxGeometry width="50" height="50" relative="1" as="geometry">
            <mxPoint x="390" y="320" as="sourcePoint" />
            <mxPoint x="440" y="270" as="targetPoint" />
          </mxGeometry>
        </mxCell>
        <mxCell id="mzEsnl5m-Egpm9HMa0oI-26" value="" style="endArrow=classic;startArrow=classic;html=1;rounded=0;fontSize=46;exitX=0.5;exitY=1;exitDx=0;exitDy=0;entryX=0.5;entryY=0;entryDx=0;entryDy=0;" edge="1" parent="1" source="mzEsnl5m-Egpm9HMa0oI-2" target="mzEsnl5m-Egpm9HMa0oI-3">
          <mxGeometry width="50" height="50" relative="1" as="geometry">
            <mxPoint x="390" y="320" as="sourcePoint" />
            <mxPoint x="440" y="270" as="targetPoint" />
          </mxGeometry>
        </mxCell>
        <mxCell id="mzEsnl5m-Egpm9HMa0oI-27" value="" style="endArrow=classic;startArrow=classic;html=1;rounded=0;fontSize=46;exitX=1;exitY=0.5;exitDx=0;exitDy=0;entryX=0;entryY=0.5;entryDx=0;entryDy=0;" edge="1" parent="1" source="mzEsnl5m-Egpm9HMa0oI-5" target="mzEsnl5m-Egpm9HMa0oI-3">
          <mxGeometry width="50" height="50" relative="1" as="geometry">
            <mxPoint x="350" y="370" as="sourcePoint" />
            <mxPoint x="400" y="320" as="targetPoint" />
          </mxGeometry>
        </mxCell>
        <mxCell id="mzEsnl5m-Egpm9HMa0oI-28" value="" style="endArrow=classic;startArrow=classic;html=1;rounded=0;fontSize=46;exitX=0.5;exitY=1;exitDx=0;exitDy=0;entryX=0.5;entryY=0;entryDx=0;entryDy=0;" edge="1" parent="1" source="mzEsnl5m-Egpm9HMa0oI-5" target="mzEsnl5m-Egpm9HMa0oI-6">
          <mxGeometry width="50" height="50" relative="1" as="geometry">
            <mxPoint x="390" y="320" as="sourcePoint" />
            <mxPoint x="440" y="270" as="targetPoint" />
          </mxGeometry>
        </mxCell>
        <mxCell id="mzEsnl5m-Egpm9HMa0oI-29" value="" style="endArrow=classic;startArrow=classic;html=1;rounded=0;fontSize=46;exitX=0;exitY=0.5;exitDx=0;exitDy=0;entryX=0;entryY=0.5;entryDx=0;entryDy=0;edgeStyle=orthogonalEdgeStyle;" edge="1" parent="1" source="mzEsnl5m-Egpm9HMa0oI-1" target="mzEsnl5m-Egpm9HMa0oI-5">
          <mxGeometry width="50" height="50" relative="1" as="geometry">
            <mxPoint x="390" y="320" as="sourcePoint" />
            <mxPoint x="440" y="270" as="targetPoint" />
            <Array as="points">
              <mxPoint x="60" y="120" />
              <mxPoint x="60" y="360" />
            </Array>
          </mxGeometry>
        </mxCell>
        <mxCell id="mzEsnl5m-Egpm9HMa0oI-30" value="" style="endArrow=classic;startArrow=classic;html=1;rounded=0;fontSize=46;edgeStyle=orthogonalEdgeStyle;entryX=0.5;entryY=0;entryDx=0;entryDy=0;exitX=0;exitY=0.5;exitDx=0;exitDy=0;" edge="1" parent="1" source="mzEsnl5m-Egpm9HMa0oI-6" target="mzEsnl5m-Egpm9HMa0oI-1">
          <mxGeometry width="50" height="50" relative="1" as="geometry">
            <mxPoint x="390" y="320" as="sourcePoint" />
            <mxPoint x="440" y="270" as="targetPoint" />
            <Array as="points">
              <mxPoint x="30" y="480" />
              <mxPoint x="30" y="60" />
              <mxPoint x="240" y="60" />
            </Array>
          </mxGeometry>
        </mxCell>
        <mxCell id="mzEsnl5m-Egpm9HMa0oI-31" value="" style="endArrow=classic;startArrow=classic;html=1;rounded=0;fontSize=46;edgeStyle=orthogonalEdgeStyle;entryX=0.5;entryY=0;entryDx=0;entryDy=0;exitX=0.5;exitY=1;exitDx=0;exitDy=0;" edge="1" parent="1" source="mzEsnl5m-Egpm9HMa0oI-6" target="mzEsnl5m-Egpm9HMa0oI-4">
          <mxGeometry width="50" height="50" relative="1" as="geometry">
            <mxPoint x="390" y="320" as="sourcePoint" />
            <mxPoint x="440" y="270" as="targetPoint" />
            <Array as="points">
              <mxPoint x="120" y="540" />
              <mxPoint x="460" y="540" />
              <mxPoint x="460" y="60" />
              <mxPoint x="360" y="60" />
            </Array>
          </mxGeometry>
        </mxCell>
        <mxCell id="mzEsnl5m-Egpm9HMa0oI-32" value="" style="endArrow=classic;startArrow=classic;html=1;rounded=0;fontSize=46;edgeStyle=orthogonalEdgeStyle;entryX=1;entryY=0.5;entryDx=0;entryDy=0;exitX=1;exitY=0.5;exitDx=0;exitDy=0;" edge="1" parent="1" source="mzEsnl5m-Egpm9HMa0oI-3" target="mzEsnl5m-Egpm9HMa0oI-4">
          <mxGeometry width="50" height="50" relative="1" as="geometry">
            <mxPoint x="400" y="330" as="sourcePoint" />
            <mxPoint x="450" y="280" as="targetPoint" />
            <Array as="points">
              <mxPoint x="430" y="360" />
              <mxPoint x="430" y="120" />
            </Array>
          </mxGeometry>
        </mxCell>
        <mxCell id="mzEsnl5m-Egpm9HMa0oI-33" value="" style="endArrow=classic;startArrow=classic;html=1;rounded=0;fontSize=46;edgeStyle=orthogonalEdgeStyle;entryX=0.5;entryY=1;entryDx=0;entryDy=0;exitX=1;exitY=0.5;exitDx=0;exitDy=0;" edge="1" parent="1" source="mzEsnl5m-Egpm9HMa0oI-2" target="mzEsnl5m-Egpm9HMa0oI-4">
          <mxGeometry width="50" height="50" relative="1" as="geometry">
            <mxPoint x="410" y="340" as="sourcePoint" />
            <mxPoint x="460" y="290" as="targetPoint" />
          </mxGeometry>
        </mxCell>
        <mxCell id="mzEsnl5m-Egpm9HMa0oI-34" value="" style="endArrow=classic;startArrow=classic;html=1;rounded=0;fontSize=46;edgeStyle=orthogonalEdgeStyle;entryX=0;entryY=0.5;entryDx=0;entryDy=0;exitX=0.5;exitY=0;exitDx=0;exitDy=0;" edge="1" parent="1" source="mzEsnl5m-Egpm9HMa0oI-5" target="mzEsnl5m-Egpm9HMa0oI-2">
          <mxGeometry width="50" height="50" relative="1" as="geometry">
            <mxPoint x="420" y="350" as="sourcePoint" />
            <mxPoint x="470" y="300" as="targetPoint" />
          </mxGeometry>
        </mxCell>
        <mxCell id="mzEsnl5m-Egpm9HMa0oI-36" value="" style="endArrow=classic;startArrow=classic;html=1;rounded=0;fontSize=46;edgeStyle=orthogonalEdgeStyle;exitX=1;exitY=0.5;exitDx=0;exitDy=0;entryX=0.5;entryY=1;entryDx=0;entryDy=0;" edge="1" parent="1" source="mzEsnl5m-Egpm9HMa0oI-6" target="mzEsnl5m-Egpm9HMa0oI-3">
          <mxGeometry width="50" height="50" relative="1" as="geometry">
            <mxPoint x="430" y="360" as="sourcePoint" />
            <mxPoint x="480" y="310" as="targetPoint" />
          </mxGeometry>
        </mxCell>
      </root>
    </mxGraphModel>
  </diagram>
</mxfile>
